<svg width="30" height="45" viewBox="0 0 30 45" fill="none" xmlns="http://www.w3.org/2000/svg">
<g id="Polygon 1">
<g id="Polygon 2">
<mask id="path-1-inside-1_101_261" fill="white">
<path d="M28.25 27L28.25 0.416199L28.25 44.5835L28.25 27Z"/>
</mask>
<path d="M28.25 27L28.25 0.416199L28.25 44.5835L28.25 27Z" fill="#D9D9D9"/>
<path d="M27.25 27L27.25 0.416199H29.25L29.25 27H27.25ZM29.25 0.416199L29.25 44.5835H27.25L27.25 0.416199H29.25ZM27.25 44.5835L27.25 27H29.25L29.25 44.5835H27.25Z" fill="#D9D9D9" mask="url(#path-1-inside-1_101_261)"/>
</g>
<g id="Polygon 3">
<mask id="path-3-inside-2_101_261" fill="white">
<path d="M1.25 27L1.25 0.416199L1.25 44.5835L1.25 27Z"/>
</mask>
<path d="M1.25 27L1.25 0.416199L1.25 44.5835L1.25 27Z" fill="#D9D9D9"/>
<path d="M0.25 27L0.25 0.416199H2.25L2.25 27H0.25ZM2.25 0.416199L2.25 44.5835H0.25L0.25 0.416199H2.25ZM0.25 44.5835L0.25 27H2.25L2.25 44.5835H0.25Z" fill="#D9D9D9" mask="url(#path-3-inside-2_101_261)"/>
</g>
</g>
</svg>
